<mxfile host="Electron" agent="Mozilla/5.0 (Windows NT 10.0; Win64; x64) AppleWebKit/537.36 (KHTML, like Gecko) draw.io/24.7.17 Chrome/128.0.6613.36 Electron/32.0.1 Safari/537.36" version="24.7.17">
  <diagram name="Pagina-1" id="_-5dWE3chr-w30Ih_SpF">
    <mxGraphModel dx="676" dy="391" grid="1" gridSize="10" guides="1" tooltips="1" connect="1" arrows="1" fold="1" page="1" pageScale="1" pageWidth="827" pageHeight="1169" math="0" shadow="0">
      <root>
        <mxCell id="0" />
        <mxCell id="1" parent="0" />
        <mxCell id="bO01W7COLCnfSwVjlIOT-19" style="edgeStyle=orthogonalEdgeStyle;rounded=0;orthogonalLoop=1;jettySize=auto;html=1;entryX=0;entryY=0.5;entryDx=0;entryDy=0;" edge="1" parent="1" source="bO01W7COLCnfSwVjlIOT-14" target="bO01W7COLCnfSwVjlIOT-17">
          <mxGeometry relative="1" as="geometry" />
        </mxCell>
        <mxCell id="bO01W7COLCnfSwVjlIOT-14" value="2" style="rounded=0;whiteSpace=wrap;html=1;fontFamily=Times New Roman;fontSize=18;fillColor=none;" vertex="1" parent="1">
          <mxGeometry x="560" y="360" width="40" height="40" as="geometry" />
        </mxCell>
        <mxCell id="bO01W7COLCnfSwVjlIOT-18" style="edgeStyle=orthogonalEdgeStyle;rounded=0;orthogonalLoop=1;jettySize=auto;html=1;entryX=0;entryY=0.5;entryDx=0;entryDy=0;" edge="1" parent="1" source="bO01W7COLCnfSwVjlIOT-16" target="bO01W7COLCnfSwVjlIOT-14">
          <mxGeometry relative="1" as="geometry" />
        </mxCell>
        <mxCell id="bO01W7COLCnfSwVjlIOT-16" value="&lt;span style=&quot;font-family: &amp;quot;Times New Roman&amp;quot;; font-size: 18px;&quot;&gt;1&lt;/span&gt;" style="shape=ext;double=1;whiteSpace=wrap;html=1;aspect=fixed;" vertex="1" parent="1">
          <mxGeometry x="400" y="360" width="40" height="40" as="geometry" />
        </mxCell>
        <mxCell id="bO01W7COLCnfSwVjlIOT-30" style="edgeStyle=orthogonalEdgeStyle;rounded=0;orthogonalLoop=1;jettySize=auto;html=1;entryX=0;entryY=0.5;entryDx=0;entryDy=0;" edge="1" parent="1" source="bO01W7COLCnfSwVjlIOT-17" target="bO01W7COLCnfSwVjlIOT-16">
          <mxGeometry relative="1" as="geometry">
            <Array as="points">
              <mxPoint x="780" y="380" />
              <mxPoint x="780" y="320" />
              <mxPoint x="380" y="320" />
              <mxPoint x="380" y="380" />
            </Array>
          </mxGeometry>
        </mxCell>
        <mxCell id="bO01W7COLCnfSwVjlIOT-17" value="3" style="rounded=0;whiteSpace=wrap;html=1;fontFamily=Times New Roman;fontSize=18;fillColor=none;" vertex="1" parent="1">
          <mxGeometry x="720" y="360" width="40" height="40" as="geometry" />
        </mxCell>
        <mxCell id="bO01W7COLCnfSwVjlIOT-20" value="" style="endArrow=none;html=1;rounded=0;" edge="1" parent="1">
          <mxGeometry width="50" height="50" relative="1" as="geometry">
            <mxPoint x="500" y="370" as="sourcePoint" />
            <mxPoint x="500" y="390" as="targetPoint" />
          </mxGeometry>
        </mxCell>
        <mxCell id="bO01W7COLCnfSwVjlIOT-21" value="" style="endArrow=none;html=1;rounded=0;" edge="1" parent="1">
          <mxGeometry width="50" height="50" relative="1" as="geometry">
            <mxPoint x="660" y="370" as="sourcePoint" />
            <mxPoint x="660" y="390" as="targetPoint" />
          </mxGeometry>
        </mxCell>
        <mxCell id="bO01W7COLCnfSwVjlIOT-25" style="edgeStyle=orthogonalEdgeStyle;rounded=0;orthogonalLoop=1;jettySize=auto;html=1;entryX=0.5;entryY=1;entryDx=0;entryDy=0;endArrow=none;endFill=0;" edge="1" parent="1" source="bO01W7COLCnfSwVjlIOT-22" target="bO01W7COLCnfSwVjlIOT-16">
          <mxGeometry relative="1" as="geometry">
            <Array as="points">
              <mxPoint x="420" y="400" />
              <mxPoint x="420" y="400" />
            </Array>
          </mxGeometry>
        </mxCell>
        <mxCell id="bO01W7COLCnfSwVjlIOT-22" value="azionare il nastro" style="rounded=0;whiteSpace=wrap;html=1;fillColor=none;fontFamily=Times New Roman;" vertex="1" parent="1">
          <mxGeometry x="360" y="410" width="120" height="30" as="geometry" />
        </mxCell>
        <mxCell id="bO01W7COLCnfSwVjlIOT-23" value="fermare il nastro&amp;nbsp;&lt;div&gt;abbassare la taglierina&lt;/div&gt;" style="rounded=0;whiteSpace=wrap;html=1;fillColor=none;fontFamily=Times New Roman;" vertex="1" parent="1">
          <mxGeometry x="520" y="410" width="120" height="30" as="geometry" />
        </mxCell>
        <mxCell id="bO01W7COLCnfSwVjlIOT-24" value="alzare la taglierina" style="rounded=0;whiteSpace=wrap;html=1;fillColor=none;fontFamily=Times New Roman;" vertex="1" parent="1">
          <mxGeometry x="680" y="410" width="120" height="30" as="geometry" />
        </mxCell>
        <mxCell id="bO01W7COLCnfSwVjlIOT-26" style="edgeStyle=orthogonalEdgeStyle;rounded=0;orthogonalLoop=1;jettySize=auto;html=1;entryX=0.5;entryY=1;entryDx=0;entryDy=0;endArrow=none;endFill=0;" edge="1" parent="1">
          <mxGeometry relative="1" as="geometry">
            <mxPoint x="579.94" y="410" as="sourcePoint" />
            <mxPoint x="579.94" y="400" as="targetPoint" />
            <Array as="points">
              <mxPoint x="579.94" y="400" />
              <mxPoint x="579.94" y="400" />
            </Array>
          </mxGeometry>
        </mxCell>
        <mxCell id="bO01W7COLCnfSwVjlIOT-27" style="edgeStyle=orthogonalEdgeStyle;rounded=0;orthogonalLoop=1;jettySize=auto;html=1;entryX=0.5;entryY=1;entryDx=0;entryDy=0;endArrow=none;endFill=0;" edge="1" parent="1">
          <mxGeometry relative="1" as="geometry">
            <mxPoint x="739.99" y="410" as="sourcePoint" />
            <mxPoint x="739.99" y="400" as="targetPoint" />
            <Array as="points">
              <mxPoint x="739.99" y="400" />
              <mxPoint x="739.99" y="400" />
            </Array>
          </mxGeometry>
        </mxCell>
        <mxCell id="bO01W7COLCnfSwVjlIOT-28" value="sensore ottico&amp;nbsp;&lt;div&gt;rileva segno&amp;nbsp;&lt;/div&gt;" style="text;html=1;align=center;verticalAlign=middle;whiteSpace=wrap;rounded=0;fontFamily=Times New Roman;" vertex="1" parent="1">
          <mxGeometry x="450" y="340" width="100" height="30" as="geometry" />
        </mxCell>
        <mxCell id="bO01W7COLCnfSwVjlIOT-29" value="sensore fine corsa rileva taglierina" style="text;html=1;align=center;verticalAlign=middle;whiteSpace=wrap;rounded=0;fontFamily=Times New Roman;" vertex="1" parent="1">
          <mxGeometry x="610" y="340" width="100" height="30" as="geometry" />
        </mxCell>
        <mxCell id="bO01W7COLCnfSwVjlIOT-31" value="sensore inizio corsa rileva taglierina" style="text;html=1;align=center;verticalAlign=middle;whiteSpace=wrap;rounded=0;fontFamily=Times New Roman;" vertex="1" parent="1">
          <mxGeometry x="530" y="280" width="100" height="30" as="geometry" />
        </mxCell>
        <mxCell id="bO01W7COLCnfSwVjlIOT-32" value="" style="endArrow=none;html=1;rounded=0;" edge="1" parent="1">
          <mxGeometry width="50" height="50" relative="1" as="geometry">
            <mxPoint x="579.76" y="310" as="sourcePoint" />
            <mxPoint x="579.76" y="330" as="targetPoint" />
          </mxGeometry>
        </mxCell>
      </root>
    </mxGraphModel>
  </diagram>
</mxfile>
